<?xml version="1.0" encoding="UTF-8"?>
<svg id="Layer_2" xmlns="http://www.w3.org/2000/svg" viewBox="0 0 148.55 261.85">
  <defs>
    <style>
      .cls-1 {
        fill: #fff;
      }

      .cls-2 {
        fill: #a9c4a0;
        stroke: #a9c4a0;
        stroke-miterlimit: 10;
      }
    </style>
  </defs>
  <g id="Layer_1-2" data-name="Layer_1">
    <path class="cls-2" d="M1.01.77c-3.5.5,11.93,25.78,16.5,36.5,11.95,28.02-16.13,62.49,11.5,118.5,18.5,37.5,71.5,39.5,75,46,6.92,12.86-1.5,42.37-1.5,56.5,0,2,12.37.63,14-1,3-3-.76-42.2,1-58,2.08-18.69,28.64-36.04,30.5-76.5C150.51,68.27,38.14-4.53,1.01.77Z"/>
    <path class="cls-1" d="M49.51,56.27c14.88,10.62,61,66,62,142,.21,15.89-4,63,0,63.56,1.52.21,4.27-2.21,5-3.56,8.69-16.05,2.07-72,2-73C110.51,66.27,21.21,36.08,49.51,56.27Z"/>
  </g>
</svg>