<svg width="560" height="397" viewBox="0 0 560 397" fill="none" xmlns="http://www.w3.org/2000/svg">
<g filter="url(#filter0_b_272_208)">
<mask id="path-1-inside-1_272_208" fill="white">
<path fill-rule="evenodd" clip-rule="evenodd" d="M408.306 0C423.114 0 435 26.1917 435 41V41V88C435 115.614 457.386 138 485 138H541V138C550.292 138 560 144.459 560 153.751V347C560 374.614 537.614 397 510 397H165C153.954 397 145 388.046 145 377V314C145 302.954 136.046 294 125 294H9V294C4.71997 294 0 291.08 0 286.8V50C0 22.3858 22.3858 0 50 0H408.306Z"/>
</mask>
<path fill-rule="evenodd" clip-rule="evenodd" d="M408.306 0C423.114 0 435 26.1917 435 41V41V88C435 115.614 457.386 138 485 138H541V138C550.292 138 560 144.459 560 153.751V347C560 374.614 537.614 397 510 397H165C153.954 397 145 388.046 145 377V314C145 302.954 136.046 294 125 294H9V294C4.71997 294 0 291.08 0 286.8V50C0 22.3858 22.3858 0 50 0H408.306Z" fill="white" fill-opacity="0.48"/>
<path d="M436 88V41H434V88H436ZM485 137C457.938 137 436 115.062 436 88H434C434 116.167 456.833 139 485 139V137ZM541 137H485V139H541V137ZM561 347V153.751H559V347H561ZM510 398C538.167 398 561 375.167 561 347H559C559 374.062 537.062 396 510 396V398ZM165 398H510V396H165V398ZM144 314V377H146V314H144ZM125 295C135.493 295 144 303.507 144 314H146C146 302.402 136.598 293 125 293V295ZM9 295H125V293H9V295ZM-1 50V286.8H1V50H-1ZM50 -1C21.8335 -1 -1 21.8335 -1 50H1C1 22.9381 22.9381 1 50 1V-1ZM408.306 -1H50V1H408.306V-1ZM9 293C7.07013 293 5.02886 292.336 3.4886 291.2C1.95382 290.068 1 288.539 1 286.8H-1C-1 289.341 0.406164 291.412 2.30138 292.81C4.19111 294.204 6.64984 295 9 295V293ZM165 396C154.507 396 146 387.493 146 377H144C144 388.598 153.402 398 165 398V396ZM541 139C545.428 139 549.962 140.544 553.372 143.182C556.776 145.815 559 149.483 559 153.751H561C561 148.728 558.37 144.52 554.596 141.6C550.83 138.686 545.864 137 541 137V139ZM436 41C436 33.3849 432.963 22.9646 428.073 14.449C425.624 10.1825 422.68 6.3426 419.368 3.55832C416.054 0.773641 412.315 -1 408.306 -1V1C411.701 1 415 2.50032 418.081 5.08935C421.162 7.67878 423.966 11.3123 426.339 15.4448C431.094 23.7271 434 33.8068 434 41H436Z" fill="white" fill-opacity="0.12" mask="url(#path-1-inside-1_272_208)"/>
</g>
<defs>
<filter id="filter0_b_272_208" x="-60" y="-60" width="680" height="517" filterUnits="userSpaceOnUse" color-interpolation-filters="sRGB">
<feFlood flood-opacity="0" result="BackgroundImageFix"/>
<feGaussianBlur in="BackgroundImageFix" stdDeviation="30"/>
<feComposite in2="SourceAlpha" operator="in" result="effect1_backgroundBlur_272_208"/>
<feBlend mode="normal" in="SourceGraphic" in2="effect1_backgroundBlur_272_208" result="shape"/>
</filter>
</defs>
</svg>
