<svg width="560" height="397" viewBox="0 0 560 397" fill="none" xmlns="http://www.w3.org/2000/svg">
<g filter="url(#filter0_b_272_213)">
<mask id="path-1-inside-1_272_213" fill="white">
<path fill-rule="evenodd" clip-rule="evenodd" d="M72 73C72 84.0457 63.0457 93 52 93H20C8.95431 93 0 101.954 0 113V269.927C0 278.796 9.13123 285 18 285V285H74C101.614 285 124 307.386 124 335V382V382C124 389.55 129.393 397 136.943 397H469C480.046 397 489 388.046 489 377V341C489 332.716 495.716 326 504 326H540C551.046 326 560 317.046 560 306V50C560 22.3858 537.614 0 510 0H92C80.9543 0 72 8.95431 72 20V73Z"/>
</mask>
<path fill-rule="evenodd" clip-rule="evenodd" d="M72 73C72 84.0457 63.0457 93 52 93H20C8.95431 93 0 101.954 0 113V269.927C0 278.796 9.13123 285 18 285V285H74C101.614 285 124 307.386 124 335V382V382C124 389.55 129.393 397 136.943 397H469C480.046 397 489 388.046 489 377V341C489 332.716 495.716 326 504 326H540C551.046 326 560 317.046 560 306V50C560 22.3858 537.614 0 510 0H92C80.9543 0 72 8.95431 72 20V73Z" fill="white" fill-opacity="0.48"/>
<path d="M52 92C62.4934 92 71 83.4934 71 73H73C73 84.598 63.598 94 52 94V92ZM20 92H52V94H20V92ZM-1 269.927V113H1V269.927H-1ZM74 286H18V284H74V286ZM123 335C123 307.938 101.062 286 74 286V284C102.167 284 125 306.833 125 335H123ZM123 382V335H125V382H123ZM469 398H136.943V396H469V398ZM490 341V377H488V341H490ZM504 327C496.268 327 490 333.268 490 341H488C488 332.163 495.163 325 504 325V327ZM540 327H504V325H540V327ZM561 50V306H559V50H561ZM510 -1C538.167 -1 561 21.8335 561 50H559C559 22.9381 537.062 1 510 1V-1ZM92 -1H510V1H92V-1ZM71 73V20H73V73H71ZM92 1C81.5066 1 73 9.50659 73 20H71C71 8.40202 80.402 -1 92 -1V1ZM469 396C479.493 396 488 387.493 488 377H490C490 388.598 480.598 398 469 398V396ZM125 382C125 389.197 130.125 396 136.943 396V398C128.661 398 123 389.904 123 382H125ZM1 269.927C1 273.99 3.0864 277.489 6.29132 280.002C9.50377 282.522 13.7857 284 18 284V286C13.3456 286 8.62746 284.376 5.05711 281.576C1.47922 278.77 -1 274.732 -1 269.927H1ZM540 325C550.493 325 559 316.493 559 306H561C561 317.598 551.598 327 540 327V325ZM20 94C9.50659 94 1 102.507 1 113H-1C-1 101.402 8.40202 92 20 92V94Z" fill="white" fill-opacity="0.12" mask="url(#path-1-inside-1_272_213)"/>
</g>
<defs>
<filter id="filter0_b_272_213" x="-60" y="-60" width="680" height="517" filterUnits="userSpaceOnUse" color-interpolation-filters="sRGB">
<feFlood flood-opacity="0" result="BackgroundImageFix"/>
<feGaussianBlur in="BackgroundImageFix" stdDeviation="30"/>
<feComposite in2="SourceAlpha" operator="in" result="effect1_backgroundBlur_272_213"/>
<feBlend mode="normal" in="SourceGraphic" in2="effect1_backgroundBlur_272_213" result="shape"/>
</filter>
</defs>
</svg>
